<svg xmlns="http://www.w3.org/2000/svg" width="201.758" height="100.016" viewBox="0 0 201.758 100.016">
  <g id="Logo" transform="translate(-25.74 -152.983)">
    <g id="Group_502" data-name="Group 502" transform="translate(25.74 153.5)">
      <g id="Group_500" data-name="Group 500" transform="translate(11.024)">
        <path id="Path_1098" data-name="Path 1098" d="M213.025,206.2H195.347a5.234,5.234,0,0,0-4.751,2.939q-.709,1.443-7.123,14.452-11.874-26.016-13.19-28.9a4.869,4.869,0,0,0-5.014-2.942,5.447,5.447,0,0,0-4.748,3.185l-12.4,32.336q-9.5-62.611-10.555-69.569a5.462,5.462,0,0,0-10.292-.982q-2.03,5.072-20.313,50.709H94.293c-1.846-7.6-8.969-12.984-17.675-12.984-10.029,0-18.208,7.592-18.208,16.9s8.179,16.9,18.208,16.9A18.088,18.088,0,0,0,93.5,217.467h16.885a5.422,5.422,0,0,0,5.014-3.185q1.422-3.573,14.246-35.765,10.214,62.833,11.344,69.815a4.936,4.936,0,0,0,4.751,4.164,5.416,5.416,0,0,0,5.541-3.185q1.5-3.918,15.039-39.193,11.161,24.913,12.4,27.68a5.3,5.3,0,0,0,9.5,0q1.053-2.176,10.555-21.8h14.246A18.342,18.342,0,0,0,230.44,228c10.025,0,18.2-7.6,18.2-16.905s-8.179-16.9-18.208-16.9A18.334,18.334,0,0,0,213.025,206.2Zm-143.8,4.9a7.672,7.672,0,1,1,7.653,7.106A7.4,7.4,0,0,1,69.228,211.1Zm153.559,0a7.672,7.672,0,1,1,7.65,7.106A7.4,7.4,0,0,1,222.787,211.1Z" transform="translate(-58.41 -153.5)" fill="#f77b00"/>
        <g id="Group_499" data-name="Group 499">
          <path id="Path_1099" data-name="Path 1099" d="M213.025,206.2H195.347a5.234,5.234,0,0,0-4.751,2.939q-.709,1.443-7.123,14.452-11.874-26.016-13.19-28.9a4.869,4.869,0,0,0-5.014-2.942,5.447,5.447,0,0,0-4.748,3.185l-12.4,32.336q-9.5-62.611-10.555-69.569a5.462,5.462,0,0,0-10.292-.982q-2.03,5.072-20.313,50.709H94.293c-1.846-7.6-8.969-12.984-17.675-12.984-10.029,0-18.208,7.592-18.208,16.9s8.179,16.9,18.208,16.9A18.088,18.088,0,0,0,93.5,217.467h16.885a5.422,5.422,0,0,0,5.014-3.185q1.422-3.573,14.246-35.765,10.214,62.833,11.344,69.815a4.936,4.936,0,0,0,4.751,4.164,5.416,5.416,0,0,0,5.541-3.185q1.5-3.918,15.039-39.193,11.161,24.913,12.4,27.68a5.3,5.3,0,0,0,9.5,0q1.053-2.176,10.555-21.8h14.246A18.342,18.342,0,0,0,230.44,228c10.025,0,18.2-7.6,18.2-16.905s-8.179-16.9-18.208-16.9A18.334,18.334,0,0,0,213.025,206.2Zm-143.8,4.9a7.672,7.672,0,1,1,7.653,7.106A7.4,7.4,0,0,1,69.228,211.1Zm153.559,0a7.672,7.672,0,1,1,7.65,7.106A7.4,7.4,0,0,1,222.787,211.1Z" transform="translate(-58.41 -153.5)" fill="#f77b00" stroke="rgba(0,0,0,0)" stroke-width="1"/>
        </g>
      </g>
      <g id="Group_501" data-name="Group 501" transform="translate(0 29.957)">
        <path id="Path_1100" data-name="Path 1100" d="M66.583,242.28c7.521,0,13.615,6.6,13.615,14.746,0,22.554-27.227,33.743-27.227,34.364h0c0-.621-27.231-11.81-27.231-34.364,0-8.146,6.1-14.746,13.615-14.746a13.491,13.491,0,0,1,13.612,13.929A13.5,13.5,0,0,1,66.583,242.28Z" transform="translate(-25.74 -242.28)" fill="#f77b00"/>
      </g>
    </g>
  </g>
</svg>
